<svg xmlns="http://www.w3.org/2000/svg" xmlns:xlink="http://www.w3.org/1999/xlink" width="548.675" height="678.293" viewBox="0 0 548.675 678.293">
  <defs>
    <style>
      .cls-1 {
        fill: #1b1d2a;
      }

      .cls-2, .cls-3 {
        fill: #e9e9e9;
      }

      .cls-2 {
        font-size: 108px;
        font-family: Blanch-Caps, Blanch Caps;
      }

      .cls-4 {
        filter: url(#Rectangle_41);
      }
    </style>
    <filter id="Rectangle_41" x="72" y="0" width="429" height="675" filterUnits="userSpaceOnUse">
      <feOffset dx="12" input="SourceAlpha"/>
      <feGaussianBlur stdDeviation="6" result="blur"/>
      <feFlood flood-opacity="0.161"/>
      <feComposite operator="in" in2="blur"/>
      <feComposite in="SourceGraphic"/>
    </filter>
  </defs>
  <g id="watch-mon" transform="translate(-686 -423)">
    <g class="cls-4" transform="matrix(1, 0, 0, 1, 686, 423)">
      <rect id="Rectangle_41-2" data-name="Rectangle 41" class="cls-1" width="393" height="639" rx="25" transform="translate(78 18)"/>
    </g>
    <text id="watch_share_comments" data-name="watch
share
comments" class="cls-2" transform="translate(1149 554)"><tspan x="-172.692" y="0">watch</tspan><tspan x="-158.004" y="82">share</tspan><tspan x="-283.5" y="164">comments</tspan></text>
    <path id="Rectangle_42" data-name="Rectangle 42" class="cls-3" d="M10,0H292a0,0,0,0,1,0,0V32a0,0,0,0,1,0,0H10A10,10,0,0,1,0,22V10A10,10,0,0,1,10,0Z" transform="translate(866 737)"/>
    <path id="Path_7" data-name="Path 7" class="cls-1" d="M65.717,0s3.76,49.267,65.717,79.747S0,79.747,0,79.747Z" transform="translate(1091 1008)"/>
    <path id="Path_8" data-name="Path 8" class="cls-1" d="M77.958,0S74.2,49.267,12.241,79.747s131.434,0,131.434,0Z" transform="translate(686 1008)"/>
  </g>
</svg>
